<svg width="265" height="146" fill="none" xmlns="http://www.w3.org/2000/svg"><path d="M226.089 39.024h-107.84v79.203h107.84V39.024Z" fill="#fff" stroke="#191C1E" stroke-linecap="round" stroke-linejoin="round"/><path stroke="#000" d="M.017 136.5h264.966"/><path d="M191.042 118.226h-37.743l-4.046 18.588h45.832l-4.043-18.588Z" fill="#fff" stroke="#191C1E" stroke-linecap="round" stroke-linejoin="round"/><path d="m153.299 118.226-1.215 5.581 38.957-5.581h-37.742Z" fill="#191C1E" stroke="#191C1E" stroke-linecap="round" stroke-linejoin="round"/><path d="M121.404 124.817c-8.691-11.523-21.799-22.827-34.212-22.827-16.874 0-26.779 7.33-34.35 18.694-7.573 11.363-5.45 16.129 8.116 16.129h86.251l2.039-13.007-27.844 1.011Z" fill="#fff" stroke="#191C1E" stroke-linecap="round" stroke-linejoin="round"/><path d="m128.986 118.225 9.071-25.68c1.616-5.637 4.044-6.848 8.29-6.848 4.247 0 15.233 5.319 25.815 5.319s21.701-6.734 27.97-6.734c4.471 0 7.347 0 8.896 6.734 1.263 5.486 5.252 27.209 5.252 27.209h-85.294Z" fill="#fff" stroke="#191C1E" stroke-linecap="round" stroke-linejoin="round"/><path d="M158.054 88.688s6.297 11.624 14.117 11.624c7.82 0 14.989-12.454 14.989-12.454s-4.283 1.431-6.008 1.849l-3.321-13.372h-9.31l-3.447 14.002c-3.067-.454-7.02-1.649-7.02-1.649Z" fill="#A83825" stroke="#191C1E" stroke-linecap="round" stroke-linejoin="round"/><path d="M166.373 85.099s9.773-1.961 12.301-5.375l-.843-3.389h-9.309l-2.149 8.764Z" fill="#191C1E" stroke="#191C1E" stroke-linecap="round" stroke-linejoin="round"/><path d="M163.508 74.4s-1.974-2.28-2.387-4.651c-.413-2.371 1.38-2.433 2.781-1.324l-.394 5.975ZM181.889 74.4s1.977-2.28 2.388-4.651c.41-2.371-1.38-2.433-2.779-1.324l.391 5.975Z" fill="#A83825" stroke="#191C1E" stroke-linecap="round" stroke-linejoin="round"/><path d="M172.155 82.047c8.789 0 10.701-8.87 10.701-13.13 0-4.26-3.024-9.904-10.357-9.904-7.334 0-10.143 4.515-10.143 9.863s3.96 13.171 9.799 13.171Z" fill="#A83825" stroke="#191C1E" stroke-linecap="round" stroke-linejoin="round"/><path d="M162.355 68.866c2.896 0 7.859-6.317 9.286-6.317 1.428 0 9.811 7.2 11.191 7.2 0 0 4.256-7.378 1.831-10.734-2.425-3.357-4.089.538-5.347 0-1.258-.54 2.74-8.172-2.831-10.148-5.572-1.975-8.384 5.964-10.542 7.41-2.158 1.445-8.906-1.12-3.588 12.589Z" fill="#191C1E" stroke="#191C1E" stroke-linecap="round" stroke-linejoin="round"/><path d="M170.729 69.195c0 4.377-1.456 7.14-1.456 7.14h1.819" stroke="#191C1E" stroke-linecap="round" stroke-linejoin="round"/><path d="M167.316 71.776a.628.628 0 1 0 0-1.255.628.628 0 0 0 0 1.255ZM174.73 71.776a.628.628 0 1 0 0-1.255.628.628 0 0 0 0 1.255Z" fill="#191C1E"/><path d="M142.783 136.814s3.641-13.007 6.472-13.007c2.831 0 4.583 13.007 4.583 13.007h-11.055Z" fill="#191C1E" stroke="#191C1E" stroke-linecap="round" stroke-linejoin="round"/><path d="M144.915 130.42c3.144 1.014 15.932-4.92 25.268 6.393h-27.4l2.132-6.393Z" fill="#F8D8C1" stroke="#191C1E" stroke-linecap="round" stroke-linejoin="round"/><path d="m107.206 123.537-38.968-5.622" stroke="#191C1E" stroke-linecap="round" stroke-linejoin="round"/><path d="M108.512 123.536c-4.433-.451-5.952 10.345-6.684 13.277h8.887s1.139-12.463-2.203-13.277Z" fill="#191C1E" stroke="#191C1E" stroke-linecap="round" stroke-linejoin="round"/><path d="m103.804 128.842 7.968 1.326s4.075-3.538 7.092-3.292c3.018.246 14.185 5.386 14.185 5.386 2.282 1.293 1.711 2.078-.275 2.29l-13.845 2.261h-17.104s1.554-6.836 1.979-7.971Z" fill="#F8D8C1" stroke="#191C1E" stroke-linecap="round" stroke-linejoin="round"/><path d="M118.924 136.813s1.213-4.041 4.314-4.041h14.967c4.719 0 4.583 4.041 4.583 4.041h-23.864Z" fill="#2F8FFE" stroke="#191C1E" stroke-linecap="round" stroke-linejoin="round"/><path d="M172.308 10.599h-12.726c-9.243 0-16.736 7.487-16.736 16.723v12.716c0 9.236 7.493 16.723 16.736 16.723h12.726c9.243 0 16.736-7.487 16.736-16.723V27.322c0-9.236-7.493-16.723-16.736-16.723Z" fill="#FC896E" stroke="#191C1E" stroke-linecap="round" stroke-linejoin="round"/><path d="M113.778 56.759c12.756 0 23.097-10.334 23.097-23.08 0-12.747-10.341-23.08-23.097-23.08-12.757 0-23.098 10.333-23.098 23.08 0 12.746 10.341 23.08 23.098 23.08Z" fill="#2F8FFE" stroke="#191C1E" stroke-linecap="round" stroke-linejoin="round"/><path d="M100.818 1v7.273M82.089 17.857l7.218.93M87.607 6.875l5.522 4.74" stroke="#191C1E" stroke-linecap="round" stroke-linejoin="round"/><path d="M170.727 24.452a4.784 4.784 0 0 0-4.785-4.782 4.784 4.784 0 0 0-4.785 4.782v11.314a4.784 4.784 0 0 0 4.785 4.782 4.784 4.784 0 0 0 4.785-4.782V24.452Z" fill="#fff" stroke="#191C1E" stroke-linecap="round" stroke-linejoin="round"/><path d="M173.358 35.968a7.416 7.416 0 0 1-12.656 5.238 7.406 7.406 0 0 1-2.171-5.238M165.943 43.377v4.31M161.157 47.687h9.573" stroke="#191C1E" stroke-linecap="round" stroke-linejoin="round"/><path d="M102.128 106.728s-.642 9.064-9.491 9.064c-11.637 0-20.307-11.437-20.307-11.437s3.635-1.818 9.692-2.128l2.117-7.091s-5.123-3.233-5.123-9.699c0-11.044 14.917-13.38 18.603-2.693 2.786 8.711.057 13.475-5.605 13.475l.716 6.466s6.4 1.968 9.398 4.043Z" fill="#F8D8C1" stroke="#191C1E" stroke-linecap="round" stroke-linejoin="round"/><path d="m84.14 95.145 1.706-5.389s-3.235-1.257-3.235-3.859c0-3.235 5.842-4.04 5.842 1.345 1.91 0 4.089-3.547 5.21-6.464 2.113 1.975 3.956 1.975 3.956 1.975s-.816-7.561-10.503-7.23c-9.31.32-8.27 11.316-8.27 11.316.397 5.567 5.293 8.306 5.293 8.306Z" fill="#191C1E" stroke="#191C1E" stroke-linecap="round" stroke-linejoin="round"/><path d="M94.676 84.774s.876 4.446 1.685 4.716l-1.215.336" stroke="#191C1E" stroke-linecap="round" stroke-linejoin="round"/><path d="M73.605 82.617c4.466 0 8.087-3.618 8.087-8.081 0-4.463-3.62-8.081-8.087-8.081s-8.088 3.618-8.088 8.08c0 4.464 3.621 8.082 8.088 8.082ZM56.011 83.464c4.935 0 8.935-3.998 8.935-8.928 0-4.931-4-8.929-8.935-8.929-4.934 0-8.935 3.998-8.935 8.929 0 4.93 4 8.928 8.935 8.928Z" fill="#191C1E" stroke="#191C1E" stroke-linecap="round" stroke-linejoin="round"/><path d="M37.208 88.232c5.45 0 9.869-4.415 9.869-9.86 0-5.446-4.419-9.861-9.869-9.861s-9.868 4.415-9.868 9.86c0 5.447 4.418 9.861 9.868 9.861Z" fill="#191C1E" stroke="#191C1E" stroke-linecap="round" stroke-linejoin="round"/><path d="M21.384 100.657c5.45 0 9.868-4.415 9.868-9.86 0-5.447-4.418-9.861-9.868-9.861s-9.869 4.414-9.869 9.86 4.419 9.861 9.869 9.861Z" fill="#191C1E" stroke="#191C1E" stroke-linecap="round" stroke-linejoin="round"/><path d="m15.139 98.432-12.435 4.623a1.72 1.72 0 0 0-1.107 1.379 1.725 1.725 0 0 0 .69 1.629l10.107 7.408a1.72 1.72 0 0 0 1.8.147 1.727 1.727 0 0 0 .945-1.537V98.432Z" fill="#191C1E" stroke="#191C1E" stroke-linecap="round" stroke-linejoin="round"/><path d="M92.014 96.228c-2.215 0-4.37-1.084-4.37-1.084l4.37 1.084Z" fill="#fff"/><path d="M92.014 96.228c-2.215 0-4.37-1.084-4.37-1.084" stroke="#191C1E" stroke-linecap="round" stroke-linejoin="round"/><path d="m124.517 26.153-5.24 4.215v-4.096a2.018 2.018 0 0 0-.601-1.436 2.04 2.04 0 0 0-1.442-.591H103.57a2.041 2.041 0 0 0-2.046 2.027v14.81a2.043 2.043 0 0 0 .603 1.439 2.036 2.036 0 0 0 1.443.591h13.664a2.032 2.032 0 0 0 1.886-1.25c.104-.248.157-.512.157-.78V37.56l5.293 3.862a1.456 1.456 0 0 0 2.318-1.161V27.272a1.458 1.458 0 0 0-.833-1.305 1.456 1.456 0 0 0-1.538.186Z" fill="#fff" stroke="#191C1E" stroke-linecap="round" stroke-linejoin="round"/><path d="M92.014 87.626a.628.628 0 1 0 0-1.255.628.628 0 0 0 0 1.255ZM96.989 87a.628.628 0 1 0 0-1.256.628.628 0 0 0 0 1.255Z" fill="#191C1E"/></svg>